<?xml version="1.0" standalone="no"?>
<!DOCTYPE svg PUBLIC "-//W3C//DTD SVG 20010904//EN"
 "http://www.w3.org/TR/2001/REC-SVG-20010904/DTD/svg10.dtd">
<svg version="1.0" xmlns="http://www.w3.org/2000/svg"
 width="420.000000pt" height="420.000000pt" viewBox="0 0 420.000000 420.000000"
 preserveAspectRatio="xMidYMid meet">
<metadata>
Created by potrace 1.11, written by Peter Selinger 2001-2013
</metadata>
<g transform="translate(0.000000,420.000000) scale(0.100000,-0.100000)"
fill="#000000" stroke="none">
<path d="M3173 3488 c-36 -40 -56 -78 -74 -141 -10 -34 -18 -55 -18 -46 -2 37
-100 39 -185 4 -60 -25 -186 -104 -186 -117 0 -11 89 -48 147 -61 l52 -12 -55
-58 c-30 -31 -78 -74 -107 -95 -29 -22 -58 -46 -65 -55 -19 -22 -25 -78 -13
-109 14 -38 47 -43 109 -19 64 25 101 26 140 4 81 -46 73 -244 -16 -405 -79
-141 -141 -198 -357 -326 -120 -72 -179 -119 -227 -183 -79 -105 -112 -214
-112 -369 0 -117 17 -176 79 -275 64 -103 56 -100 -19 7 -26 38 -49 68 -51 68
-1 0 -35 -47 -75 -105 -126 -183 -196 -222 -440 -250 -25 -3 -63 -7 -85 -10
-57 -6 -169 -16 -245 -20 -36 -3 -101 -7 -145 -10 -44 -3 -116 -7 -160 -10
-358 -22 -407 -25 -465 -30 -228 -17 -254 -24 -291 -76 l-21 -29 139 5 c76 3
197 7 268 10 248 10 381 15 540 20 88 3 210 7 270 10 61 2 173 7 250 10 195 7
230 13 315 47 41 17 88 34 105 39 54 16 140 12 206 -9 35 -11 81 -23 102 -27
45 -7 47 -13 -28 95 -65 95 -71 105 -57 96 15 -9 148 -188 155 -208 9 -25 -38
-55 -113 -72 -72 -17 -89 -30 -94 -72 l-4 -29 632 0 631 0 -1 24 c0 18 -11 30
-35 43 -77 39 -147 42 -719 25 -83 -2 -85 -1 -88 22 -2 13 0 27 5 32 12 12
114 38 107 28 -2 -5 6 -15 18 -23 20 -13 38 -14 118 -5 57 6 232 8 435 5 196
-4 346 -2 354 3 11 7 3 14 -30 31 -94 48 -256 77 -533 95 -44 2 -81 6 -83 8
-2 2 23 24 54 49 162 127 230 238 205 330 -6 22 -6 41 0 52 5 9 20 59 33 110
22 85 29 166 26 282 -1 42 -1 42 -35 37 l-35 -4 9 33 c17 62 34 241 33 352
l-1 68 37 -5 c20 -2 63 -16 94 -31 68 -31 83 -32 90 -7 6 26 -9 48 -52 76 -39
24 -146 57 -155 48 -10 -10 -23 40 -30 112 -4 39 -12 88 -16 110 -27 124 -46
192 -82 300 -42 128 -47 173 -33 295 16 138 8 181 -50 271 -24 38 -46 69 -48
69 -2 0 -13 -10 -24 -22z m-160 -725 c-7 -2 -21 -2 -30 0 -10 3 -4 5 12 5 17
0 24 -2 18 -5z m-643 -1663 c12 -17 18 -30 13 -30 -4 0 -18 16 -31 36 -28 42
-13 37 18 -6z"/>
<path d="M3556 2422 c-3 -6 -1 -14 5 -17 15 -10 25 3 12 16 -7 7 -13 7 -17 1z"/>
<path d="M642 1259 c-12 -5 -31 -23 -41 -40 l-20 -32 -6 26 c-8 31 -29 41 -57
26 -19 -10 -20 -18 -15 -83 3 -40 13 -84 23 -102 16 -28 16 -32 1 -64 -25 -49
-21 -49 14 -2 17 23 60 70 95 104 70 67 91 110 72 149 -9 21 -37 28 -66 18z"/>
</g>
</svg>
